<svg width="21" height="24" viewBox="0 0 21 24" fill="none" xmlns="http://www.w3.org/2000/svg">
<path d="M9.42552 20.3524L14.6445 13.1763C15.0572 12.6089 15.2635 12.3252 15.2635 12C15.2635 11.6748 15.0572 11.3911 14.6445 10.8237L9.42552 3.64759C8.50367 2.38005 8.04275 1.74628 7.35194 1.56538C6.66114 1.38448 5.94875 1.71099 4.52396 2.36402L3.83338 2.68053C2.70013 3.19994 2.13351 3.45964 1.81676 3.95326C1.5 4.44688 1.5 5.07019 1.5 6.31679L1.5 17.6832C1.5 18.9298 1.5 19.5531 1.81676 20.0467C2.13351 20.5404 2.70014 20.8001 3.83338 21.3195L4.52396 21.636C5.94875 22.289 6.66114 22.6155 7.35194 22.4346C8.04275 22.2537 8.50367 21.6199 9.42552 20.3524Z" fill="#10164C"/>
<path d="M10.8999 21.2199L18.6133 13.4049C19.2677 12.7419 19.5949 12.4104 19.5949 12C19.5949 11.5896 19.2677 11.2581 18.6133 10.5951L10.8999 2.78013C10.0455 1.91449 9.61827 1.48167 9.05997 1.34911C8.50166 1.21654 7.92549 1.41113 6.77315 1.80029L3.72014 2.83136C2.407 3.27483 1.75043 3.49657 1.37521 4.01932C0.999999 4.54207 0.999999 5.23507 0.999999 6.62107L1 17.3789C1 18.7649 1 19.4579 1.37521 19.9807C1.75043 20.5034 2.407 20.7252 3.72014 21.1686L3.72014 21.1686L6.77316 22.1997C7.92549 22.5889 8.50166 22.7835 9.05997 22.6509C9.61827 22.5183 10.0455 22.0855 10.8999 21.2199Z" stroke="#10164C" stroke-linecap="round"/>
<circle cx="6.5" cy="12" r="3" fill="white"/>
</svg>
