<svg width="18" height="14" viewBox="0 0 18 14" fill="none" xmlns="http://www.w3.org/2000/svg">
<path fill-rule="evenodd" clip-rule="evenodd" d="M0.292893 13.7071C-0.0976311 13.3166 -0.0976311 12.6834 0.292893 12.2929L5.58579 7L0.292893 1.7071C-0.0976316 1.3166 -0.0976316 0.6834 0.292892 0.2929C0.683416 -0.0976 1.31658 -0.0976 1.70711 0.2929L7.70711 6.29289C8.09763 6.68342 8.09763 7.31658 7.70711 7.70711L1.70711 13.7071C1.31658 14.0976 0.683417 14.0976 0.292893 13.7071Z" fill="#2F2F2F"/>
<path fill-rule="evenodd" clip-rule="evenodd" d="M10.2929 13.7071C9.90237 13.3166 9.90237 12.6834 10.2929 12.2929L15.5858 7L10.2929 1.7071C9.90237 1.3166 9.90237 0.6834 10.2929 0.2929C10.6834 -0.0976 11.3166 -0.0976 11.7071 0.2929L17.7071 6.29289C18.0976 6.68342 18.0976 7.31658 17.7071 7.70711L11.7071 13.7071C11.3166 14.0976 10.6834 14.0976 10.2929 13.7071Z" fill="#2F2F2F"/>
</svg>
