<svg width="10" height="19" viewBox="0 0 10 19" fill="none" xmlns="http://www.w3.org/2000/svg">
<path fill-rule="evenodd" clip-rule="evenodd" d="M6.11497 1.88459C4.66738 1.88459 3.57651 2.97546 3.57651 4.42305V8.54805H1.46113V9.92305H3.57651V17.5384H5.48036V9.81728H8.19974L8.48922 8.44228H5.48036V4.74036C5.48036 4.53676 5.53168 4.26751 5.74556 4.05364C5.95943 3.83976 6.22869 3.78843 6.43228 3.78843H8.65343V1.88459H6.11497ZM2.30728 4.42305C2.30728 2.27448 3.96641 0.615356 6.11497 0.615356H8.97074C9.17433 0.615356 9.44359 0.666684 9.65746 0.880559C9.87134 1.09443 9.92266 1.36369 9.92266 1.56728V4.10574C9.92266 4.30933 9.87134 4.57859 9.65746 4.79246C9.44359 5.00634 9.17433 5.05766 8.97074 5.05766H6.74959V7.17305H8.86497C9.21691 7.17305 9.48059 7.36226 9.63098 7.58786C9.76884 7.79464 9.81689 8.03083 9.81689 8.23074V8.29682L9.38736 10.3371C9.36191 10.5258 9.26695 10.6611 9.20407 10.7337C9.12547 10.8244 9.03695 10.8878 8.96672 10.93C8.84438 11.0034 8.65082 11.0865 8.44189 11.0865H6.74959V18.8077H2.30728V11.1923H1.14382C0.940226 11.1923 0.67097 11.141 0.457096 10.9271C0.243222 10.7132 0.191895 10.4439 0.191895 10.2404V8.23074C0.191895 8.02715 0.243222 7.75789 0.457096 7.54402C0.67097 7.33015 0.940226 7.27882 1.14382 7.27882H2.30728V4.42305ZM1.14384 8.54805C1.14384 8.54805 1.14385 8.54805 1.14384 8.54805V8.54805Z" fill="white"/>
</svg>
