<svg width="37" height="33" viewBox="0 0 37 33" fill="none" xmlns="http://www.w3.org/2000/svg">
<path fill-rule="evenodd" clip-rule="evenodd" d="M17.6161 1.37832C18.1043 0.873893 18.8957 0.873893 19.3839 1.37832L35.6339 18.17C36.122 18.6744 36.122 19.4923 35.6339 19.9967C35.1457 20.5011 34.3543 20.5011 33.8661 19.9967L18.5 4.11836L3.13388 19.9967C2.64573 20.5011 1.85427 20.5011 1.36612 19.9967C0.877961 19.4923 0.877961 18.6744 1.36612 18.17L17.6161 1.37832Z" fill="white"/>
<path fill-rule="evenodd" clip-rule="evenodd" d="M7.25 12.625C7.94036 12.625 8.5 13.2033 8.5 13.9167V29.4167H28.5V13.9167C28.5 13.2033 29.0596 12.625 29.75 12.625C30.4404 12.625 31 13.2033 31 13.9167V30.7083C31 31.4217 30.4404 32 29.75 32H7.25C6.55964 32 6 31.4217 6 30.7083V13.9167C6 13.2033 6.55964 12.625 7.25 12.625Z" fill="white"/>
<path fill-rule="evenodd" clip-rule="evenodd" d="M17.6161 1.37832C18.1043 0.873893 18.8957 0.873893 19.3839 1.37832L35.6339 18.17C36.122 18.6744 36.122 19.4923 35.6339 19.9967C35.1457 20.5011 34.3543 20.5011 33.8661 19.9967L18.5 4.11836L3.13388 19.9967C2.64573 20.5011 1.85427 20.5011 1.36612 19.9967C0.877961 19.4923 0.877961 18.6744 1.36612 18.17L17.6161 1.37832Z" stroke="white" stroke-width="0.5" stroke-linecap="round" stroke-linejoin="round"/>
<path fill-rule="evenodd" clip-rule="evenodd" d="M7.25 12.625C7.94036 12.625 8.5 13.2033 8.5 13.9167V29.4167H28.5V13.9167C28.5 13.2033 29.0596 12.625 29.75 12.625C30.4404 12.625 31 13.2033 31 13.9167V30.7083C31 31.4217 30.4404 32 29.75 32H7.25C6.55964 32 6 31.4217 6 30.7083V13.9167C6 13.2033 6.55964 12.625 7.25 12.625Z" stroke="white" stroke-width="0.5" stroke-linecap="round" stroke-linejoin="round"/>
</svg>
