<svg width="16" height="17" viewBox="0 0 16 17" fill="none" xmlns="http://www.w3.org/2000/svg">
<path d="M7.96109 0.884644C5.89446 0.884644 5.63459 0.894163 4.8226 0.930336C4.01061 0.968413 3.45754 1.09597 2.97301 1.28445C2.46454 1.47515 2.00409 1.77507 1.62414 2.16308C1.23613 2.54303 0.936205 3.00348 0.745511 3.51195C0.55703 3.99553 0.42852 4.54955 0.391395 5.35868C0.355222 6.17258 0.345703 6.4315 0.345703 8.50098C0.345703 10.5686 0.355222 10.8275 0.391395 11.6395C0.429472 12.4505 0.55703 13.0036 0.745511 13.4881C0.940655 13.9888 1.20053 14.4134 1.62414 14.837C2.04679 15.2606 2.47135 15.5214 2.97206 15.7156C3.45754 15.9041 4.00966 16.0326 4.82069 16.0697C5.63364 16.1059 5.89256 16.1154 7.96109 16.1154C10.0296 16.1154 10.2876 16.1059 11.1005 16.0697C11.9106 16.0316 12.4656 15.9041 12.9501 15.7156C13.4583 15.5248 13.9184 15.2249 14.298 14.837C14.7216 14.4134 14.9815 13.9888 15.1767 13.4881C15.3642 13.0036 15.4927 12.4505 15.5308 11.6395C15.567 10.8275 15.5765 10.5686 15.5765 8.50003C15.5765 6.4315 15.567 6.17258 15.5308 5.35963C15.4927 4.54955 15.3642 3.99553 15.1767 3.51195C14.986 3.00348 14.686 2.54303 14.298 2.16308C13.9181 1.77507 13.4576 1.47515 12.9492 1.28445C12.4637 1.09597 11.9097 0.967461 11.0996 0.930336C10.2866 0.894163 10.0287 0.884644 7.95918 0.884644H7.96109ZM7.27856 2.25732H7.96204C9.99535 2.25732 10.2362 2.26398 11.0387 2.30111C11.7812 2.33442 12.1848 2.45912 12.4532 2.56288C12.8083 2.70091 13.0624 2.86655 13.329 3.13309C13.5955 3.39962 13.7602 3.65284 13.8982 4.00886C14.0029 4.27635 14.1267 4.67996 14.16 5.42246C14.1971 6.22493 14.2048 6.46577 14.2048 8.49812C14.2048 10.5305 14.1971 10.7723 14.16 11.5747C14.1267 12.3172 14.002 12.7199 13.8982 12.9883C13.7753 13.3186 13.5805 13.6174 13.328 13.8632C13.0615 14.1297 12.8083 14.2944 12.4523 14.4324C12.1857 14.5371 11.7821 14.6609 11.0387 14.6951C10.2362 14.7313 9.99535 14.7399 7.96204 14.7399C5.92873 14.7399 5.68694 14.7313 4.88447 14.6951C4.14197 14.6609 3.73931 14.5371 3.47087 14.4324C3.14039 14.3099 2.84126 14.1154 2.5951 13.8632C2.34215 13.6172 2.14705 13.318 2.02394 12.9874C1.92018 12.7199 1.79548 12.3163 1.76216 11.5738C1.72599 10.7713 1.71838 10.5305 1.71838 8.49622C1.71838 6.46196 1.72599 6.22303 1.76216 5.42056C1.79643 4.67806 1.92018 4.27444 2.0249 4.006C2.16292 3.65093 2.32856 3.39677 2.5951 3.13023C2.86164 2.86369 3.11485 2.69901 3.47087 2.56098C3.73931 2.45627 4.14197 2.33252 4.88447 2.29825C5.58699 2.26588 5.85924 2.25636 7.27856 2.25541V2.25732ZM12.0268 3.52147C11.9067 3.52147 11.7879 3.54511 11.677 3.59103C11.5662 3.63696 11.4654 3.70427 11.3806 3.78913C11.2957 3.87399 11.2284 3.97473 11.1825 4.0856C11.1365 4.19648 11.1129 4.31531 11.1129 4.43532C11.1129 4.55532 11.1365 4.67416 11.1825 4.78503C11.2284 4.8959 11.2957 4.99664 11.3806 5.0815C11.4654 5.16636 11.5662 5.23368 11.677 5.2796C11.7879 5.32553 11.9067 5.34916 12.0268 5.34916C12.2691 5.34916 12.5016 5.25288 12.6729 5.0815C12.8443 4.91012 12.9406 4.67768 12.9406 4.43532C12.9406 4.19295 12.8443 3.96051 12.6729 3.78913C12.5016 3.61775 12.2691 3.52147 12.0268 3.52147ZM7.96204 4.58953C7.44331 4.58143 6.92815 4.67662 6.44656 4.86953C5.96496 5.06244 5.52656 5.34923 5.15687 5.7132C4.78717 6.07717 4.49358 6.51105 4.29318 6.98957C4.09278 7.4681 3.98957 7.98171 3.98957 8.5005C3.98957 9.0193 4.09278 9.53291 4.29318 10.0114C4.49358 10.49 4.78717 10.9238 5.15687 11.2878C5.52656 11.6518 5.96496 11.9386 6.44656 12.1315C6.92815 12.3244 7.44331 12.4196 7.96204 12.4115C8.98873 12.3955 9.96794 11.9764 10.6883 11.2447C11.4087 10.513 11.8125 9.52732 11.8125 8.5005C11.8125 7.47369 11.4087 6.48806 10.6883 5.75635C9.96794 5.02464 8.98873 4.60555 7.96204 4.58953ZM7.96204 5.96125C8.29544 5.96125 8.62557 6.02692 8.93359 6.1545C9.24161 6.28209 9.52148 6.46909 9.75723 6.70484C9.99298 6.94059 10.18 7.22046 10.3076 7.52848C10.4352 7.8365 10.5008 8.16663 10.5008 8.50003C10.5008 8.83343 10.4352 9.16356 10.3076 9.47158C10.18 9.7796 9.99298 10.0595 9.75723 10.2952C9.52148 10.531 9.24161 10.718 8.93359 10.8456C8.62557 10.9731 8.29544 11.0388 7.96204 11.0388C7.28871 11.0388 6.64297 10.7713 6.16685 10.2952C5.69074 9.8191 5.42326 9.17335 5.42326 8.50003C5.42326 7.8267 5.69074 7.18095 6.16685 6.70484C6.64297 6.22873 7.28871 5.96125 7.96204 5.96125Z" fill="white"/>
</svg>
