<svg width="17" height="17" viewBox="0 0 17 17" fill="none" xmlns="http://www.w3.org/2000/svg">
<path d="M16.1542 16.7551H14.2015V9.43864C14.2015 8.80382 14.1131 8.25739 13.9364 7.79936C13.7676 7.34133 13.4864 6.98775 13.0926 6.73865C12.7069 6.48151 12.1765 6.35294 11.5015 6.35294C10.8828 6.35294 10.3444 6.46945 9.88636 6.70249C9.43636 6.93552 9.07074 7.25293 8.78949 7.65472C8.50824 8.04847 8.31137 8.49847 8.19887 9.00471L7.84931 7.61856H8.27119C8.39976 7.0882 8.62476 6.60606 8.94618 6.17213C9.26761 5.73017 9.69752 5.38062 10.2359 5.12347C10.7823 4.8583 11.4493 4.72571 12.2368 4.72571C13.1689 4.72571 13.9203 4.90249 14.4908 5.25606C15.0694 5.60963 15.4913 6.1199 15.7564 6.78686C16.0216 7.44579 16.1542 8.25739 16.1542 9.22168V16.7551ZM8.28324 16.7551H6.33057V4.99089H8.28324L8.19887 7.81141L8.28324 7.9199V16.7551Z" fill="white"/>
<path d="M3.09298 16.755H1.1403V4.99079H3.09298V16.755ZM2.11664 3.06223C1.71486 3.06223 1.41352 2.95776 1.21262 2.74883C1.01977 2.53187 0.92334 2.23857 0.92334 1.86893V1.80866C0.92334 1.43098 1.01977 1.13768 1.21262 0.928749C1.41352 0.719821 1.71486 0.615356 2.11664 0.615356C2.51842 0.615356 2.81976 0.719821 3.02066 0.928749C3.22155 1.13768 3.32199 1.43098 3.32199 1.80866V1.86893C3.32199 2.2466 3.22155 2.53991 3.02066 2.74883C2.81976 2.95776 2.51842 3.06223 2.11664 3.06223Z" fill="white"/>
</svg>
