<svg width="19" height="20" viewBox="0 0 19 20" fill="none" xmlns="http://www.w3.org/2000/svg">
<path fill-rule="evenodd" clip-rule="evenodd" d="M13.2046 1.90582C12.2952 1.81905 11.1302 1.81818 9.5 1.81818H6.62121C6.14424 1.81818 5.75758 1.41117 5.75758 0.909091C5.75758 0.407014 6.14424 3.54764e-07 6.62121 3.54764e-07L9.54276 1.3802e-07C11.1209 -7.5564e-06 12.364 -1.35194e-05 13.3605 0.0950576C14.3779 0.192119 15.2227 0.393982 15.9773 0.852566C16.8963 1.41109 17.6595 2.21442 18.1901 3.18182C18.6257 3.97611 18.8175 4.86538 18.9097 5.9363C19 6.98527 19 8.29383 19 9.95501V10.045C19 11.7062 19 13.0147 18.9097 14.0637C18.8175 15.1346 18.6257 16.0239 18.1901 16.8182C17.6595 17.7856 16.8963 18.5889 15.9773 19.1474C15.2227 19.606 14.3779 19.8079 13.3605 19.9049C12.364 20 11.1209 20 9.54274 20H9.45726C7.87914 20 6.63601 20 5.63948 19.9049C4.62211 19.8079 3.7773 19.606 3.02273 19.1474C2.1037 18.5889 1.34054 17.7856 0.809938 16.8182C0.374283 16.0239 0.182513 15.1346 0.0903047 14.0637C-1.28434e-05 13.0147 -7.17858e-06 11.7062 1.31119e-07 10.045L3.37026e-07 6.9697C3.37026e-07 6.46762 0.386663 6.06061 0.863637 6.06061C1.34061 6.06061 1.72727 6.46762 1.72727 6.9697V10C1.72727 11.716 1.7281 12.9423 1.81053 13.8996C1.89188 14.8444 2.04722 15.4376 2.3058 15.9091C2.6848 16.6001 3.22992 17.1739 3.88636 17.5728C4.33423 17.845 4.89782 18.0086 5.79539 18.0942C6.70484 18.1809 7.86977 18.1818 9.5 18.1818C11.1302 18.1818 12.2952 18.1809 13.2046 18.0942C14.1022 18.0086 14.6658 17.845 15.1136 17.5728C15.7701 17.1739 16.3152 16.6001 16.6942 15.9091C16.9528 15.4377 17.1081 14.8444 17.1895 13.8996C17.2719 12.9423 17.2727 11.716 17.2727 10C17.2727 8.28397 17.2719 7.05773 17.1895 6.10041C17.1081 5.1556 16.9528 4.56235 16.6942 4.09091C16.3152 3.39991 15.7701 2.8261 15.1136 2.42716C14.6658 2.15497 14.1022 1.99145 13.2046 1.90582Z" fill="#10164C"/>
<path fill-rule="evenodd" clip-rule="evenodd" d="M13.2424 13.9394H5.66159V12.1212H10.2938L4.09131 5.59229C3.75403 5.23726 3.75403 4.66166 4.09131 4.30664C4.42858 3.95162 4.9754 3.95162 5.31267 4.30664L11.5151 10.8355V5.95956H13.2424V13.9394Z" fill="#10164C"/>
</svg>
