<svg width="79" height="79" viewBox="0 0 79 79" fill="none" xmlns="http://www.w3.org/2000/svg">
<path d="M42.0536 13.0844H36.787V42.3985L55.8149 51.442L58.0758 46.6852L42.0536 39.0703V13.0844Z" fill="#D9D9D9"/>
<path d="M39.5 0C17.6848 0 0 17.6848 0 39.5C0 61.3152 17.6848 79 39.5 79C61.3152 79 79 61.3152 79 39.5C79 17.6848 61.3152 0 39.5 0ZM39.5 73.7333C20.5935 73.7333 5.26667 58.4065 5.26667 39.5C5.26667 20.5935 20.5935 5.26667 39.5 5.26667C58.4065 5.26667 73.7333 20.5935 73.7333 39.5C73.7333 58.4065 58.4065 73.7333 39.5 73.7333Z" fill="#D9D9D9"/>
</svg>
