<svg width="16" height="17" viewBox="0 0 16 17" fill="none" xmlns="http://www.w3.org/2000/svg">
<path fill-rule="evenodd" clip-rule="evenodd" d="M0.499512 8.50003C0.499512 4.31058 3.92545 0.884644 8.1149 0.884644C12.3043 0.884644 15.7303 4.31058 15.7303 8.50003C15.7303 12.6895 12.3043 16.1154 8.1149 16.1154C6.80919 16.1154 5.50388 15.7705 4.39281 15.1435L2.49993 15.6843C1.53772 15.9592 0.641284 15.084 0.893096 14.1154L1.40559 12.1443C0.848216 11.0503 0.499512 9.81327 0.499512 8.50003ZM8.1149 1.74676C4.40158 1.74676 1.36163 4.78672 1.36163 8.50003C1.36163 9.71246 1.69839 10.8647 2.24488 11.8893C2.2958 11.9848 2.30895 12.0959 2.28172 12.2007L1.72747 14.3324C1.64354 14.6552 1.94235 14.947 2.26308 14.8553L4.33247 14.2641C4.44719 14.2313 4.57036 14.2475 4.67267 14.3089C5.68256 14.9148 6.89894 15.2533 8.1149 15.2533C11.8282 15.2533 14.8682 12.2133 14.8682 8.50003C14.8682 4.78672 11.8282 1.74676 8.1149 1.74676Z" fill="white"/>
<path fill-rule="evenodd" clip-rule="evenodd" d="M5.96312 5.58826C5.85239 5.58826 5.72493 5.63045 5.57726 5.77559L5.57048 5.78226C5.43711 5.90789 5.34816 6.0416 5.29308 6.18141L5.29214 6.18378C5.23401 6.32889 5.20313 6.49033 5.20313 6.66562C5.20313 6.94486 5.26751 7.25162 5.40993 7.58955C5.55607 7.93291 5.76005 8.28653 6.01965 8.64704C6.28452 9.01017 6.58189 9.35836 6.91223 9.69155C7.24607 10.0215 7.59523 10.3189 7.96305 10.5871C8.3221 10.8481 8.67965 11.0523 9.0322 11.2023C9.37421 11.3478 9.68127 11.4118 9.95375 11.4118C10.1325 11.4118 10.2925 11.3789 10.4378 11.3185L10.4402 11.3175C10.5768 11.2616 10.7048 11.1723 10.8302 11.0344C10.8963 10.9614 10.9462 10.8846 10.9855 10.8014C11.0149 10.7394 11.0267 10.6804 11.0267 10.6267C11.0267 10.6037 11.023 10.5793 11.0094 10.5428L11.0076 10.5405C11.0048 10.5373 10.9974 10.5295 10.981 10.5181L10.9766 10.5151L9.86683 9.72835C9.80115 9.684 9.75286 9.65841 9.71706 9.64379C9.70259 9.63788 9.69319 9.63541 9.68816 9.63435L9.68423 9.63365C9.68423 9.63365 9.67912 9.63625 9.67496 9.63877L9.66235 9.64644L9.64927 9.65325C9.62677 9.66497 9.58254 9.69522 9.51656 9.76111L9.51446 9.7632L9.25957 10.0143C9.14323 10.1299 8.98784 10.2012 8.80636 10.2012C8.74144 10.2012 8.65747 10.1939 8.56516 10.1593L8.55549 10.1557L8.546 10.1516C8.5297 10.1446 8.5146 10.1377 8.5056 10.1336L8.50302 10.1324L8.49365 10.1282L8.47339 10.1201L8.45232 10.1089C8.29884 10.0278 8.12674 9.90501 7.93851 9.74598C7.74853 9.58491 7.56437 9.41145 7.37907 9.22985L7.37303 9.22394C7.19005 9.03771 7.02218 8.85244 6.86621 8.67247L6.86295 8.66871C6.70697 8.48464 6.58044 8.31348 6.49867 8.16379L6.47953 8.12875L6.4689 8.09691L6.46714 8.09272L6.46601 8.09007C6.46187 8.08034 6.45367 8.06105 6.44552 8.03934L6.43654 8.01542L6.43033 7.99064C6.41623 7.93431 6.40682 7.87394 6.40682 7.80456C6.40682 7.64362 6.4629 7.4843 6.58823 7.35708L6.84777 7.0877C6.90821 7.02734 6.94426 6.97854 6.96294 6.94554L6.96651 6.93923L6.97028 6.93304C6.97202 6.93019 6.97415 6.92607 6.97415 6.92607C6.97253 6.91994 6.96962 6.91093 6.96468 6.89942L6.96175 6.89259C6.9474 6.85757 6.9227 6.81101 6.87839 6.74956L6.87656 6.74703L6.09295 5.64418C6.08635 5.63465 6.08013 5.62828 6.07423 5.62344C6.06817 5.61845 6.05996 5.61305 6.04818 5.60761L6.04204 5.60478C6.02219 5.59527 5.99471 5.58826 5.96312 5.58826ZM4.95267 5.13327C5.23504 4.85711 5.57743 4.69234 5.96312 4.69234C6.11888 4.69234 6.27867 4.72523 6.42621 4.79535C6.57823 4.86599 6.71863 4.9751 6.82756 5.13125L7.60606 6.22689C7.68167 6.33192 7.74357 6.43841 7.78946 6.54952C7.8365 6.6601 7.8714 6.79006 7.8714 6.92768C7.8714 7.09602 7.82233 7.2542 7.73915 7.39297C7.67149 7.51089 7.58222 7.62012 7.48412 7.7185L7.35815 7.84924C7.40307 7.91311 7.46434 7.99244 7.54489 8.08759C7.69039 8.25541 7.84399 8.42466 8.00919 8.59295C8.18605 8.76619 8.35139 8.92143 8.51704 9.06188C8.61372 9.14355 8.69451 9.20454 8.75993 9.24888L8.88466 9.12598C8.98327 9.02766 9.09582 8.93376 9.2223 8.86559C9.35793 8.78575 9.51069 8.73745 9.6812 8.73745C9.81068 8.73745 9.93542 8.7652 10.0558 8.81439C10.1675 8.85998 10.2729 8.9211 10.3736 8.98951L10.3811 8.99459L11.4929 9.78287C11.6369 9.88296 11.756 10.0144 11.8307 10.184L11.8338 10.191L11.8366 10.1981C11.8867 10.323 11.9226 10.4639 11.9226 10.6267C11.9226 10.815 11.8805 11.0046 11.7955 11.1845C11.7205 11.3431 11.6223 11.4947 11.4934 11.6367C11.2894 11.8612 11.0542 12.034 10.7808 12.1461C10.5227 12.2534 10.2456 12.3077 9.95375 12.3077C9.53981 12.3077 9.11335 12.2105 8.68146 12.0267C8.2602 11.8475 7.84396 11.6082 7.43594 11.3116C7.03052 11.0159 6.6462 10.6885 6.28071 10.3271L6.27764 10.324C5.91575 9.95918 5.58806 9.5758 5.29497 9.17384L5.29345 9.17176C5.00175 8.76684 4.76194 8.35501 4.58522 7.93961L4.58466 7.93831C4.40425 7.51047 4.3072 7.08502 4.3072 6.66562C4.3072 6.38441 4.35693 6.1095 4.45999 5.85178C4.56589 5.58356 4.73141 5.34256 4.95267 5.13327Z" fill="white"/>
</svg>
