<svg width="19" height="15" viewBox="0 0 19 15" fill="none" xmlns="http://www.w3.org/2000/svg">
<path fill-rule="evenodd" clip-rule="evenodd" d="M2.81861 2.83217C2.19222 3.43879 1.81342 4.32336 1.81342 5.43026V10.3006C1.81342 11.4075 2.19222 12.292 2.81861 12.8987C3.445 13.5053 4.3584 13.8721 5.50138 13.8721H13.8831C15.0261 13.8721 15.9395 13.5053 16.5659 12.8987C17.1922 12.292 17.571 11.4075 17.571 10.3006V5.43026C17.571 4.32336 17.1922 3.43879 16.5659 2.83217C15.9395 2.22555 15.0261 1.8587 13.8831 1.8587H5.50138C4.3584 1.8587 3.445 2.22555 2.81861 2.83217ZM2.1074 2.1434C2.94781 1.32952 4.12984 0.884644 5.50138 0.884644H13.8831C15.2546 0.884644 16.4367 1.32952 17.2771 2.1434C18.1175 2.95729 18.5768 4.10201 18.5768 5.43026V10.3006C18.5768 11.6288 18.1175 12.7735 17.2771 13.5874C16.4367 14.4013 15.2546 14.8462 13.8831 14.8462H5.50138C4.12984 14.8462 2.94781 14.4013 2.1074 13.5874C1.26699 12.7735 0.807617 11.6288 0.807617 10.3006V5.43026C0.807617 4.10201 1.26699 2.95729 2.1074 2.1434Z" fill="white"/>
<path fill-rule="evenodd" clip-rule="evenodd" d="M8.37201 6.12605C8.32616 6.15167 8.18356 6.27814 8.18356 6.72899V9.16414C8.18356 9.50328 8.30697 9.62927 8.37201 9.66561C8.43294 9.69965 8.60715 9.74619 8.93063 9.55823L11.0151 8.34704C11.2928 8.16484 11.3477 7.99716 11.3477 7.90598C11.3477 7.81479 11.2928 7.64712 11.0151 7.46491L8.93063 6.25372C8.58491 6.05284 8.417 6.10092 8.37201 6.12605ZM7.86939 5.28233C8.36922 5.00307 8.95566 5.13233 9.44811 5.41847L11.5435 6.63605C11.5504 6.64002 11.5571 6.64415 11.5638 6.64844C12.0323 6.95095 12.3535 7.38938 12.3535 7.90598C12.3535 8.42258 12.0323 8.861 11.5638 9.16351C11.5571 9.1678 11.5504 9.17193 11.5435 9.17591L9.44811 10.3935C8.93342 10.6926 8.35327 10.7797 7.86939 10.5093C7.38962 10.2413 7.17776 9.71788 7.17776 9.16414V6.72899C7.17776 6.1246 7.37043 5.56111 7.86939 5.28233Z" fill="white"/>
</svg>
