<svg xmlns="http://www.w3.org/2000/svg" viewBox="0 0 905.02 259.98"><defs><style>.cls-1{fill:#cacacc;}.cls-2{fill:#f69b48;}.cls-3{fill:#f8f8ff;}.cls-4{fill:#737375;}.cls-5{fill:#4d4d4d;}</style></defs><g id="Layer_2" data-name="Layer 2"><g id="Layer_1-2" data-name="Layer 1"><text/><path d="M905,36.57V32.09H664.48v4.48h19.4c-13.52,15.36-15.26,20.28-14.06,21.75s4.52-.38,10.64,1.61a14.91,14.91,0,0,1,6.59,3.61c3,3.21,3.15,7.43,3.26,12.79.16,6.42.25,10.69-2.88,13.93-2.86,3-6.89,3.43-8.71,3.51a14.43,14.43,0,0,1-7.07-4.35c-.79-1.64-1.56-3.28-2.34-4.92h-1.5v22.21l2-.06c.34-.92.67-1.84,1-2.77v0a6.59,6.59,0,0,1,1.67-1.52,6.67,6.67,0,0,1,2.34-.9c1.09,0,2.2,0,3.29.06l4,.13c11-.73,22.8,4.19,26.53-20.4l22,0v27.45a32.28,32.28,0,0,1-1.24,5.82l-4.19,1.5c0,.91-.05,1.81-.07,2.72h29.58v-2l-4-1.9a30.45,30.45,0,0,1-1.36-6.14V36.57h22.1v72.14a31,31,0,0,1-1.35,6.11h0l-3.35,1.2c0,.91,0,1.8-.07,2.71h29.58v-2l-4.88-2.32a33.08,33.08,0,0,1-1.21-5.72V36.57h79.7v33.2c-4.35-4.1-15.64-12.95-31.37-12.4-20.4.73-30.85,12.38-30.25,24.84s5.77,23.89,24,25.93c4.65.54,9.27,1.06,13.93,1.57a15.55,15.55,0,0,1,1.57.68l2.67,3.77,2,.06V92H851l-3.57,8.8a7.39,7.39,0,0,1-1.11.85,9.26,9.26,0,0,1-10.91-1,24.21,24.21,0,0,1-5.52-7.92c-.84-2-3.7-8.62-1-16.08a18,18,0,0,1,8.41-10.09c6.47-3.35,13.16-1,15.83-.11,9,3.07,14.07,10.72,16.73,16.24v26c-.51,4-1.82,10-4.89,10h28.51c-3.08-.06-4.38-6.07-4.9-10V36.57ZM730.66,75.35c-7.37-.08-14.72-.13-22.09-.22C710.36,47,673.8,64.2,688.41,52.5c5.45-4.11,14-12.33,17.64-15.93h24.61Z"/><path d="M766.71,118.74h0Z"/><path d="M618.23,36.57V32.09H597c0-2.27,0-7.22,0-15.77C597,3.84,586.22,6,586.22,6l-34.17.16c-.56-2-1.13-4.07-1.69-6.11l-2.07,0V22.49h1.52l2.8-5.77h30.25c6.32,0,5.44,5.77,5.44,5.77v9.6H262.38v4.48h29.24c-13.51,15.37-15.26,20.28-14.05,21.75s4.52-.38,10.64,1.61a14.88,14.88,0,0,1,6.58,3.61c3,3.21,3.16,7.43,3.27,12.79.16,6.42.24,10.69-2.89,13.93-2.85,3-6.88,3.43-8.7,3.51a15.12,15.12,0,0,1-5.36-2.72,15.76,15.76,0,0,1-3.29-3.67v17.76a6.5,6.5,0,0,1,4.78-3.7c1.09,0,2.21,0,3.3.06l4,.13c11-.73,22.8,4.19,26.53-20.4l22,0v27.45a33.35,33.35,0,0,1-1.2,5.66c-1.56.55-3.12,1.12-4.68,1.68,0,.92,0,1.85-.07,2.78h30.35v-2l-4.37-2.08a31.37,31.37,0,0,1-1.32-6V36.57h16.65V94.1s.72,19,14.64,19.21,16.33,0,16.33,0a9.52,9.52,0,0,1,2.52.49c.73,2,1.44,4,2.16,6l2,0V97.64H410l-2.84,6a4.76,4.76,0,0,1-1.72.38c-4.32.12-12.48.54-12.3-10.33.16-9.46,0-47.45,0-57.11H493.17V59.32a49.55,49.55,0,0,0-5.36.09c-5.41.38-8.54.6-12,2.64a18.1,18.1,0,0,0-7.68,9.14,16.38,16.38,0,0,0-.95,4.43c-.84,0-1.69.09-2.53.11a24.53,24.53,0,0,0-5.52-12.49c-8.44-9.79-21.9-8.38-24-8.16-3.18.36-12.1,1.28-18.36,8.9-8.52,10.34-4.22,23.51-4,24.24,1,2.8,4.46,11.37,13.93,15.13a24.3,24.3,0,0,0,16.62.3v.11c.54,1.46,1.06,3,1.6,4.43.49,0,1,0,1.45,0V92.3h-1.07l-2,4.08v0a15.06,15.06,0,0,1-10-3.37c-5.61-4.82-7-14.18-2.42-20.06,4.87-6.23,13.84-4.89,15.61-4.57,5.82,1.06,11.59,5.25,13.55,11.29a14.77,14.77,0,0,1,.71,5.58l10.23.41a10.53,10.53,0,0,1,.62-7c1.85-3.84,5.55-5.09,7.05-5.6a13.78,13.78,0,0,1,10.34.51,13,13,0,0,1,4.16,3.14v32a32.84,32.84,0,0,1-1.22,5.71l-4.52,1.63c0,.92-.05,1.85-.07,2.78H517.7v-2l-4.52-2.15a32.32,32.32,0,0,1-1.29-5.92V36.57h19v72.14c.18,4.49-1.09,5.89-1.48,6-.75.18-1.27.4-1.9.6-.9.28-1.62.57-2.08.76l-.09,2.78h28.79c5.4,2.1,12.69,1.52,19.73,1,13.06-1,23.49-1.86,30.41-10.72,7-9,8.15-23.47,1.6-32-4.3-5.6-10.93-7.42-20-9.92a71.18,71.18,0,0,0-16.06-2.5c-1-2.21-2.09-4.41-3.14-6.62h-2.05V88.37l2.78-.08q1.19-3.26,2.35-6.52a7.93,7.93,0,0,1,4-2c6.55-1.07,11.58,8,12,8.8s5.25,10.11.32,17.45c-5.18,7.71-16.41,6.34-18.56,6.08-8.93-1.09-14.87-7-17.85-10.92V36.57ZM338.41,75.35c-7.38-.08-14.72-.13-22.1-.22C318.11,47,281.54,64.2,296.15,52.5c5.45-4.11,14-12.33,17.65-15.93h24.61Z"/><path d="M320,.24V22.45l-2-.06q-.84-2.36-1.7-4.73a7.73,7.73,0,0,0-.83-.37H265.26a2.92,2.92,0,0,0-2.42.95,2.85,2.85,0,0,0-.46,2.89v89.29c.47,2.88,1.45,4,2.31,4.49.16.09.29.14,2,.94l2,.94v2H238.27c0-.93.06-1.85.08-2.78l1.79-.65c1.32-.47,1.56-.53,1.78-.63.77-.35,1.63-1.37,2-4.35l.41-73.84H230.05v-4l14.26-.14s.06-11.94-.16-19.29,6.39-7.37,6.39-7.37l64.86.16.46-.12c.88-1.85,1.75-3.71,2.64-5.56Z"/><polygon class="cls-1" points="0 54.17 0 7.2 211.25 7.2 211.25 162.76 111.87 123.39 142.59 217.97 103.71 217.97 74.9 193.49 0 193.49 0 186.77 73.46 187.25 73.46 69.62 0 69.62 0 64.66 73.78 64.66 33.61 14.88 0 54.17"/><circle class="cls-2" cx="32.41" cy="110.91" r="32.41"/><rect class="cls-3" x="92.18" y="32.09" width="107.07" height="8.72"/><rect class="cls-3" x="123.63" y="58.49" width="75.62" height="8.72"/><rect class="cls-3" x="123.63" y="83.22" width="75.62" height="8.72"/><rect class="cls-3" x="122.43" y="105.31" width="76.82" height="8.72"/><path class="cls-4" d="M213.89,172.84l-90.26-36.73L154.36,230l10.32-50.42Z"/><path class="cls-5" d="M251,149.35v22l6.37-4.27q3.48-2.33,6.6-4.38c2.06-1.37,3.82-2.54,5.27-3.49l2.41-1.6,3.65,3s-.18.53-.54,1.44a32.26,32.26,0,0,0-1.17,3.61q-.62,2.25-1.16,5.2a33.13,33.13,0,0,0-.55,6.13,30.44,30.44,0,0,0,.7,6.4,17.51,17.51,0,0,0,2.56,6l-4.11,2.72a23,23,0,0,1-3.22-7.45,34,34,0,0,1-.9-7.69,41.72,41.72,0,0,1,.43-6.05,50.82,50.82,0,0,1,1.05-5.28q-2.18,1.4-4.7,3.1l-5,3.38-4.7,3.14-3.69,2.49c-.57.41-1,.54-1.4.38a2.59,2.59,0,0,1-.85-.54l-2-3V149.35h-5.51v-5h39.67v5Z"/><path class="cls-5" d="M294.34,149.35h-4.66v39.36h-5V149.35h-5.43v-5h15.06Z"/><path class="cls-5" d="M340.91,125q3,3.57,1.71,9.55c-.21.62-.49,1-.85,1.05a1.68,1.68,0,0,1-.93,0l-3.42-1q1.4-4.35-.31-6.29a4.74,4.74,0,0,0-2.09-1.4,14.2,14.2,0,0,0-2.72-.66,15.14,15.14,0,0,0-2.64-.15c-.83,0-1.48.06-1.94.11q-2.88.39-5.13.78t-5,1q-2.79.66-5.63,1.51a46.87,46.87,0,0,0-5.47,2,21.19,21.19,0,0,0-4.51,2.64,4.8,4.8,0,0,0-1.78,2.17,6,6,0,0,0-.23,1.32,4.46,4.46,0,0,0,.54,2.06,14.32,14.32,0,0,0,1.24,2,11.74,11.74,0,0,0,1.48,1.63c.51.47.93.83,1.24,1.09h4.27v5H304v39.44h-5V149.35h-5.59v-5h4a18.39,18.39,0,0,1-1.78-3.07,8.8,8.8,0,0,1-.08-7.06,10.15,10.15,0,0,1,3.26-4,25.36,25.36,0,0,1,5-3,48.41,48.41,0,0,1,5.94-2.29c2.07-.65,4.1-1.2,6.1-1.67s3.8-.85,5.43-1.16,3-.53,4-.66a13,13,0,0,0,1.71-.27q.39,0,2-.12a19.67,19.67,0,0,1,3.68.12,16.92,16.92,0,0,1,4.31,1.08A9.63,9.63,0,0,1,340.91,125Z"/><path class="cls-5" d="M353,144.39v5h-4.74v39.44h-5a37.41,37.41,0,0,1-9.78-3.42,41.68,41.68,0,0,1-7.45-4.93,38.83,38.83,0,0,1-5.36-5.39,43.78,43.78,0,0,1-3.41-4.81l-1.4-2.33,4.66-2.41,4-2.06c1.34-.69,2.48-1.28,3.41-1.74-.88-.73-2-1.68-3.37-2.87l-4.23-3.65c-1.45-1.25-2.8-2.41-4-3.5s-2.15-1.86-2.72-2.33h-5.59v-5Zm-9.71,5H321.12l12,10.33v4.89c-.83.41-1.73.88-2.71,1.4l-2.92,1.51-2.64,1.36-2,1c.88,1.19,2,2.47,3.19,3.84a32.37,32.37,0,0,0,4.35,4,34.69,34.69,0,0,0,5.66,3.49,32.07,32.07,0,0,0,7.14,2.53Zm-12.11,41.38a4.22,4.22,0,0,1,3.15,1.32,4.42,4.42,0,0,1,1.28,3.18,4.34,4.34,0,0,1-1.28,3.11,4.41,4.41,0,0,1-6.29,0,4.34,4.34,0,0,1-1.28-3.11,4.42,4.42,0,0,1,1.28-3.18A4.2,4.2,0,0,1,331.13,190.73Z"/><path class="cls-5" d="M406.59,144.39v5H352.25v-5Zm-19.25,9.78,1.35.11a15,15,0,0,1,3.07.7,20,20,0,0,1,3.8,1.75,11.83,11.83,0,0,1,3.58,3.26q4.19,5.43,1.94,14.67a17.2,17.2,0,0,1-5.21,8.89,15,15,0,0,1-9.16,3.76,18.68,18.68,0,0,1-7-.93,24.3,24.3,0,0,1-7.53-4.07,40.4,40.4,0,0,1-7.49-7.76A55.26,55.26,0,0,1,358,162.47a.44.44,0,0,1-.08-.31c-.26-.46-.28-.82-.07-1.08a1.81,1.81,0,0,1,.46-.47l3.81-1.55a54,54,0,0,0,5.78,11.18,38.05,38.05,0,0,0,6.33,7.22,19.84,19.84,0,0,0,6.32,3.8,14.88,14.88,0,0,0,5.79.93,9.85,9.85,0,0,0,6.24-2.52,12.3,12.3,0,0,0,3.54-6.25,21.61,21.61,0,0,0,.62-4.66,9.38,9.38,0,0,0-1.63-5.66,7.78,7.78,0,0,0-2.29-2.06,13.22,13.22,0,0,0-2.49-1.13,12.13,12.13,0,0,0-2.09-.5q-.9-.12-1.05-.12a8.31,8.31,0,0,0-4.42,1.05,4,4,0,0,0-2,2.83v.55a3.63,3.63,0,0,0,.54,1.9A3,3,0,0,0,383,166.9l-1.55,4.89a7.7,7.7,0,0,1-4.58-3.53,8.55,8.55,0,0,1-1.17-5.86,9.75,9.75,0,0,1,1-2.88,9.22,9.22,0,0,1,2.17-2.67,10.79,10.79,0,0,1,3.46-1.94,14.17,14.17,0,0,1,4.85-.74h.16Zm9.31,27.48v24.61h-5a22.54,22.54,0,0,1-7.72-2.95,26.27,26.27,0,0,1-5.13-4.16,19.75,19.75,0,0,1-2.87-3.8l-1-1.82-.85-2,1.86-1.09c.05,0,.51-.31,1.36-.78s2-1,3.42-1.59a47.18,47.18,0,0,1,4.92-1.7,37.21,37.21,0,0,1,6-1.21v-3.49Zm-16,11.88a17.3,17.3,0,0,0,1.59,2,18.31,18.31,0,0,0,2.29,2.14,18.94,18.94,0,0,0,3.11,2,17.55,17.55,0,0,0,4,1.47v-11a30.56,30.56,0,0,0-6.36,1.51Q382.44,192.67,380.66,193.53Z"/><path class="cls-5" d="M450.21,144.39v5H445.4V189h-5V167.29a23.91,23.91,0,0,0-1.12-6.37,27.21,27.21,0,0,0-2.29-5.2,15.32,15.32,0,0,0-2.87-3.65,7.87,7.87,0,0,0-2.88-1.78,6,6,0,0,0-1.39.23,7.1,7.1,0,0,0-2,.89,10.35,10.35,0,0,0-2.21,1.86,8.93,8.93,0,0,0-1.83,3.3,4.42,4.42,0,0,0-.31,1.79,5.38,5.38,0,0,0,.47,2.21,4,4,0,0,0,1.32,1.67c1.65,1.3,3.75,1.11,6.28-.54l2.64,4.11a12.61,12.61,0,0,1-6.4,2.21,8.38,8.38,0,0,1-5.63-1.82l-.5-.47c-.19-.15-.35-.31-.51-.46a8.12,8.12,0,0,1-1.63,1.63,6.29,6.29,0,0,1-1.36.81,8.15,8.15,0,0,1-2.09.66,8.75,8.75,0,0,1-2.68.08,10.75,10.75,0,0,1-3.34-1H410a1.6,1.6,0,0,1-.81-.74,3.5,3.5,0,0,1-.27-.81A1.59,1.59,0,0,1,409,165h-.07l1.78-2.88a9,9,0,0,0,1.24.74,6.67,6.67,0,0,0,1.52.54,5,5,0,0,0,1.63.12,2.86,2.86,0,0,0,1.51-.62,4.53,4.53,0,0,0,1.63-2.6,5.65,5.65,0,0,0-.15-3.45,5.1,5.1,0,0,0-1.87-2.29,18.84,18.84,0,0,0-3.45-2.06,38.49,38.49,0,0,0-4.19-1.67,37.84,37.84,0,0,0-4.08-1.13l1.09-4.89a20,20,0,0,0,2.17.58,34.64,34.64,0,0,1,4,1.29,41.88,41.88,0,0,1,4.66,2.13,17.13,17.13,0,0,1,4.11,3,13.26,13.26,0,0,1,3.3-3.77,13.4,13.4,0,0,1,3.49-1.94,13.2,13.2,0,0,1,2.88-.7l1.35-.11h.16l.23.08a5.86,5.86,0,0,1,2.25,1,15.24,15.24,0,0,1,2.18,1.82c.72.73,1.43,1.51,2.13,2.37a28.2,28.2,0,0,1,1.9,2.6v-8.77Z"/><path class="cls-5" d="M418.15,125a9.15,9.15,0,0,1,3.77-2.72,16.92,16.92,0,0,1,4.34-1.08,20.29,20.29,0,0,1,3.73-.12c1.06.08,1.7.12,1.9.12a13.32,13.32,0,0,0,1.75.27c1.06.13,2.41.35,4,.66s3.45.7,5.47,1.16,4.05,1,6.09,1.67a51,51,0,0,1,5.94,2.29,23.23,23.23,0,0,1,5,3,9.92,9.92,0,0,1,3.22,4,10.17,10.17,0,0,1,.74,3.45,9.83,9.83,0,0,1-.82,3.61,17,17,0,0,1-1.74,3.07h3.26v5H460v39.44h-5V149.35h-5.59v-5h5.12c.31-.26.72-.62,1.24-1.09a14.17,14.17,0,0,0,1.52-1.63,12.88,12.88,0,0,0,1.28-2,4.46,4.46,0,0,0,.54-2.06,5.56,5.56,0,0,0-.27-1.32,5.07,5.07,0,0,0-1.83-2.17,21.27,21.27,0,0,0-4.46-2.64,44.33,44.33,0,0,0-5.43-2q-2.83-.85-5.67-1.51c-1.89-.44-3.58-.79-5.09-1s-2.7-.45-3.61-.58l-1.43-.2c-.52,0-1.18-.09-2-.11a15.46,15.46,0,0,0-2.64.15,13.19,13.19,0,0,0-2.72.66,4.67,4.67,0,0,0-2.05,1.4q-1.63,1.86-.31,6.29l-3.42,1a1.68,1.68,0,0,1-.93,0c-.36-.08-.65-.43-.86-1.05Q415,128.64,418.15,125Z"/><path class="cls-5" d="M515,144.39v5h-4.81v39.36h-5v-22a16.07,16.07,0,0,0-2.68-3.42,3,3,0,0,0-2.36-1,2.75,2.75,0,0,0-1.56.78,9.23,9.23,0,0,0-1.47,1.7,17.83,17.83,0,0,0-1.28,2.18,14.8,14.8,0,0,0-.9,2.17l-.54,1.63-3.57-1.16a4.33,4.33,0,0,1-.66-.43c-.23-.18-.27-.48-.12-.89v-.16l.16-.54a1.2,1.2,0,0,0,.11-.35,2,2,0,0,1,.2-.5,11.25,11.25,0,0,0-2.52-2.06,16.24,16.24,0,0,0-2.33-1.13,9.77,9.77,0,0,0-1.79-.5l-.81-.12c-3.94,0-6.52,1.3-7.77,3.88a7.53,7.53,0,0,0-.77,3.5,9.58,9.58,0,0,0,.35,2.6,6.65,6.65,0,0,0,1.2,2.37,6.72,6.72,0,0,0,.82,1,6.56,6.56,0,0,0,1.2.93,5.14,5.14,0,0,0,1.67.62,7,7,0,0,0,2.21,0l.62,5a11.5,11.5,0,0,1-5.94-.77,11,11,0,0,1-4.69-3.88,11.47,11.47,0,0,1-1.67-3.22,15.19,15.19,0,0,1-.74-3.54,14.25,14.25,0,0,1,.15-3.57,10.8,10.8,0,0,1,1.17-3.34,11.83,11.83,0,0,1,1.36-2,10.22,10.22,0,0,1,2.33-2.1,14.69,14.69,0,0,1,3.53-1.67,15.93,15.93,0,0,1,5-.7h.07l1,.12a19.41,19.41,0,0,1,2.3.5,17.77,17.77,0,0,1,3.1,1.25,16.48,16.48,0,0,1,3.42,2.33,16.08,16.08,0,0,1,2.83-3.15,7,7,0,0,1,3.92-1.67,7.7,7.7,0,0,1,5.51,1.79v-9.71H464v-5Z"/><path class="cls-5" d="M540.34,149.35c-.47.21-1.33.66-2.6,1.36a21.87,21.87,0,0,0-4.16,3.15,30.65,30.65,0,0,0-4.46,5.39,26.15,26.15,0,0,0-3.45,8.19,25.27,25.27,0,0,0-.66,11,17,17,0,0,0,3.92,8.65,11,11,0,0,0,4.15,2.91,9,9,0,0,0,4.77.51l.62,3.8a1.65,1.65,0,0,1-.27.78c-.18.31-.66.46-1.43.46h-.31a13.12,13.12,0,0,1-6-1.28,16,16,0,0,1-5.16-3.84,21.26,21.26,0,0,1-5.13-10.75,31.3,31.3,0,0,1,.7-13.55,32.41,32.41,0,0,1,4.47-10.21,33.79,33.79,0,0,1,5.78-6.56H514.18v-5H541.5v5Z"/><path class="cls-5" d="M550.74,149.35v22l6.37-4.27,6.59-4.38,5.28-3.49,2.41-1.6,3.65,3s-.18.53-.55,1.44a34.8,34.8,0,0,0-1.16,3.61q-.62,2.25-1.16,5.2a33.13,33.13,0,0,0-.55,6.13,29.8,29.8,0,0,0,.7,6.4,17.51,17.51,0,0,0,2.56,6l-4.11,2.72a23,23,0,0,1-3.22-7.45,34,34,0,0,1-.9-7.69,41.72,41.72,0,0,1,.43-6.05,48.33,48.33,0,0,1,1-5.28q-2.18,1.4-4.7,3.1l-5,3.38-4.69,3.14L550,177.77c-.57.41-1,.54-1.4.38a2.59,2.59,0,0,1-.85-.54l-2-3V149.35h-5.51v-5h39.67v5Z"/><path class="cls-5" d="M623.25,144.39v5h-4.82v39.52h-5a38.21,38.21,0,0,1-9.16-3.11,41.19,41.19,0,0,1-7.14-4.46,38.5,38.5,0,0,1-5.32-5,47.84,47.84,0,0,1-3.61-4.69,33.48,33.48,0,0,1-2.09-3.58c-.47-1-.73-1.51-.78-1.66l-.77-2,1.78-1.08,2.37-1.36a63.83,63.83,0,0,1,5.86-2.91,77.38,77.38,0,0,1,8.5-3.15,56,56,0,0,1,10.36-2.13v-4.43H579.07v-5Zm-9.79,14.36a51.24,51.24,0,0,0-7.22,1.43c-2.32.65-4.46,1.35-6.4,2.1s-3.67,1.5-5.2,2.25-2.76,1.39-3.69,1.9a45.67,45.67,0,0,0,2.56,4,33.19,33.19,0,0,0,4.43,5,37.6,37.6,0,0,0,6.56,4.85,30.42,30.42,0,0,0,9,3.45Zm-17.62,27.56a4.51,4.51,0,0,1,4.5,4.5,4.24,4.24,0,0,1-1.32,3.1,4.33,4.33,0,0,1-3.18,1.32,4.51,4.51,0,0,1-4.42-4.42,4.33,4.33,0,0,1,1.32-3.18A4.24,4.24,0,0,1,595.84,186.31Z"/><path class="cls-5" d="M685.81,149.35V189h-5v-22a31.8,31.8,0,0,0-2-7.41A19.6,19.6,0,0,0,676,154.6a13.13,13.13,0,0,0-3.3-2.92,14.34,14.34,0,0,0-3.1-1.43,9.64,9.64,0,0,0-2.37-.47l-1.05,0a17.72,17.72,0,0,0-4.73,1,14,14,0,0,0-3.46,1.87,9.9,9.9,0,0,0-2.25,2.29,7.17,7.17,0,0,0-1.05,2.13,1.81,1.81,0,0,0-.15.78v.31a25.11,25.11,0,0,1,4.5-1.21,11.44,11.44,0,0,1,5.36.28,7.94,7.94,0,0,1,4.07,2,6,6,0,0,1,1.52,2.64,6.89,6.89,0,0,1-.2,4.12,17.83,17.83,0,0,1-2.09,4.19,30.79,30.79,0,0,1-3,3.8q-1.67,1.78-3,3a2.29,2.29,0,0,1-1.09.51,2,2,0,0,1-.85-.12,1.68,1.68,0,0,1-.7-.54l-2-2.33a41.59,41.59,0,0,0,3.19-3.07,42.22,42.22,0,0,0,2.75-3.26,19.33,19.33,0,0,0,1.87-2.91,3,3,0,0,0,.42-2.1c-.15-.41-.67-.75-1.55-1h-.16a.64.64,0,0,0-.46-.15,1.46,1.46,0,0,0-.62-.16,8.94,8.94,0,0,0-2.14,0,15.12,15.12,0,0,0-2.17.39,17,17,0,0,0-1.94.62c-.6.24-1.05.43-1.36.59l-1.32.62-1.16-.86a6.18,6.18,0,0,1-2.45-3.22,7.16,7.16,0,0,1,0-4.23A10.43,10.43,0,0,1,651.7,152a16.68,16.68,0,0,1,3.37-3.34,21.33,21.33,0,0,1,4.74-2.6,20.05,20.05,0,0,1,6-1.32l1.59.28a18.18,18.18,0,0,1,3.72,1.2A26.54,26.54,0,0,1,676,149a21.28,21.28,0,0,1,4.89,5.05v-9.7h9.78v5Z"/><path class="cls-5" d="M730.37,149.35h-4.73v39.52h-5V167.75a27.72,27.72,0,0,0-1-7.22,19.84,19.84,0,0,0-2.21-5.08,14,14,0,0,0-2.92-3.34,17.42,17.42,0,0,0-3-2,10.82,10.82,0,0,0-2.49-.93l-1.4-.31q-5,.15-6.59,3.41a6.83,6.83,0,0,0-.7,3.11,7.65,7.65,0,0,0,1.32,4.42,6.07,6.07,0,0,0,1.74,1.56,4.35,4.35,0,0,0,2.91.46l.7,4.89a9.85,9.85,0,0,1-5.31-.66,9.46,9.46,0,0,1-4.08-3.37,12.12,12.12,0,0,1-2.29-6.29,11.65,11.65,0,0,1,1.28-6.44,17.75,17.75,0,0,1,1.24-1.91,8.81,8.81,0,0,1,2.1-1.94,14,14,0,0,1,3.22-1.55,13.65,13.65,0,0,1,4.46-.66h.24a30.15,30.15,0,0,1,4.46,1.86,29.56,29.56,0,0,1,4.11,2.72,23.93,23.93,0,0,1,4.16,4.19v-8.3h9.7Z"/><path class="cls-5" d="M775,144.39v5h-4.74v39.36h-5v-4.27a33.75,33.75,0,0,0-1.2-7.92,22.25,22.25,0,0,0-2.33-5.43,13.79,13.79,0,0,0-2.91-3.45,13.6,13.6,0,0,0-2.91-1.91,11.24,11.24,0,0,0-2.33-.81,9.65,9.65,0,0,0-1.2-.2c-3.83.11-6.42,1.4-7.77,3.89a7.78,7.78,0,0,0-.77,3.49,8.74,8.74,0,0,0,1.55,5.05,6.72,6.72,0,0,0,.82,1,6.56,6.56,0,0,0,1.2.93,5.23,5.23,0,0,0,1.67.62,7,7,0,0,0,2.21,0l.7,4.89A10.71,10.71,0,0,1,741.39,180a12.41,12.41,0,0,1-1.7-3.22,12.93,12.93,0,0,1-.74-3.54,15.29,15.29,0,0,1,.19-3.57,12,12,0,0,1,1.09-3.33,16.46,16.46,0,0,1,2.48-3.19,10.86,10.86,0,0,1,5-2.71l-12.5-11.11h-5.66v-5Zm-9.71,5H742.64L755,160.22a15.41,15.41,0,0,1,2.25.74,17.21,17.21,0,0,1,2.6,1.36,19.35,19.35,0,0,1,2.76,2.13,21.86,21.86,0,0,1,2.71,3.07Z"/><path class="cls-5" d="M789.14,149.35h-4.66v39.36h-5V149.35h-5.43v-5h15.06Z"/><path class="cls-5" d="M832.53,149.35h-4.74v39.52h-5a34.86,34.86,0,0,1-9.16-3.07,44.82,44.82,0,0,1-7.15-4.46,36.54,36.54,0,0,1-5.31-5,42.12,42.12,0,0,1-3.61-4.74,36.74,36.74,0,0,1-2.1-3.61l-.78-1.59-.77-1.94,1.71-1.08c.15-.11,1.07-.64,2.75-1.6a68.36,68.36,0,0,1,6.72-3.22,10.53,10.53,0,0,1-3.34-3,10.7,10.7,0,0,1-1.55-3,10.47,10.47,0,0,1-.39-4.62,11.51,11.51,0,0,1,1.55-4.54,12.52,12.52,0,0,1,2.56-3.15,7.32,7.32,0,0,1,3.26-1.67l1.17,4.82a5,5,0,0,0-2.64,2.4,7.31,7.31,0,0,0-1,2.72,5.55,5.55,0,0,0,.19,2.56l.47,1a4.82,4.82,0,0,0,1.39,1.63,9.45,9.45,0,0,0,2.68,1.44,10.41,10.41,0,0,0,4.23.46c1.45-.41,2.93-.76,4.43-1s3.05-.53,4.66-.74v-9.39h9.7Zm-9.7,9.48a50.68,50.68,0,0,0-7.22,1.43q-3.5,1-6.45,2.1t-5.24,2.21c-1.52.73-2.75,1.35-3.68,1.86a36.12,36.12,0,0,0,7.06,9.09,36.51,36.51,0,0,0,6.56,4.81,31.2,31.2,0,0,0,9,3.41Z"/><path class="cls-5" d="M842.16,149.35v.39a18.91,18.91,0,0,0,.54,4.51l.93,4.19c.26,1,.48,2,.66,2.87a7.51,7.51,0,0,0,.35,1.4c.1.31.27,1,.5,2.21a22.8,22.8,0,0,1,.35,4.46,29,29,0,0,1-.31,4.08,28.7,28.7,0,0,1-1.08,4.66,31.27,31.27,0,0,1-2.14,5,33,33,0,0,1-3.45,5.24c-.57.52-1,.7-1.44.55a2.84,2.84,0,0,1-.74-.39h-.07v-.08l-2.49-2.17a25.55,25.55,0,0,0,5-8,26.61,26.61,0,0,0,1.67-7,19.72,19.72,0,0,0-.16-5.08c-.26-1.32-.41-2-.46-2.14V164l-1.94-8.62a32.18,32.18,0,0,1-.55-3.26,27.58,27.58,0,0,1-.15-2.8h-5.51v-4.89a.09.09,0,0,1,.15,0v-.07h18.48v5Z"/><path class="cls-5" d="M894.86,144.39v5h-4.73v39.36h-5v-4.27a34.28,34.28,0,0,0-1.2-7.92,22.64,22.64,0,0,0-2.33-5.43,14.22,14.22,0,0,0-2.91-3.45,13.85,13.85,0,0,0-2.91-1.91,11.44,11.44,0,0,0-2.33-.81,9.39,9.39,0,0,0-1.21-.2c-3.83.11-6.41,1.4-7.76,3.89a7.66,7.66,0,0,0-.78,3.49,8.67,8.67,0,0,0,1.56,5.05,6.6,6.6,0,0,0,.81,1,7,7,0,0,0,1.21.93,5.17,5.17,0,0,0,1.66.62,7.07,7.07,0,0,0,2.22,0l.7,4.89A10.71,10.71,0,0,1,861.25,180a12.75,12.75,0,0,1-1.71-3.22,12.91,12.91,0,0,1-.73-3.54,14.77,14.77,0,0,1,.19-3.57,12,12,0,0,1,1.09-3.33,15.7,15.7,0,0,1,2.48-3.19,10.86,10.86,0,0,1,5-2.71L855,149.35h-5.67v-5Zm-9.7,5H862.49l12.35,10.87a15.41,15.41,0,0,1,2.25.74,17.7,17.7,0,0,1,2.6,1.36,19.87,19.87,0,0,1,2.75,2.13,21.28,21.28,0,0,1,2.72,3.07Z"/></g></g></svg>